<svg width="282" height="80" viewBox="0 0 282 80" fill="none" xmlns="http://www.w3.org/2000/svg">
<path d="M15.842 74.471C14.5367 74.471 13.2017 74.382 11.837 74.204C8.099 73.7293 5.34 72.6317 3.56 70.911C1.83933 69.1903 0.979 67.3213 0.979 65.304C0.979 63.1087 1.958 61.121 3.916 59.341C5.874 57.5017 8.633 56.582 12.193 56.582C14.5663 56.582 17.1473 57.0567 19.936 58.006C21.4787 58.54 23.318 59.43 25.454 60.676C27.59 61.922 30.0523 63.2273 32.841 64.592C35.8077 61.744 38.5073 58.2137 40.94 54.001C43.432 49.7883 45.8943 45.279 48.327 40.473C50.819 35.6077 53.489 30.7423 56.337 25.877C59.2443 21.0117 62.5967 16.443 66.394 12.171L71.556 6.386C69.3607 6.03 67.0763 5.763 64.703 5.585C62.3297 5.34766 59.8673 5.229 57.316 5.229C54.112 5.229 50.819 5.407 47.437 5.763C44.055 6.05966 40.673 6.564 37.291 7.276C31.7137 8.46266 26.9967 10.3613 23.14 12.972C19.2833 15.5827 16.3463 18.4307 14.329 21.516C12.371 24.542 11.392 27.39 11.392 30.06C11.392 31.8993 11.8963 33.5607 12.905 35.044C13.973 36.468 15.5453 37.5063 17.622 38.159C18.9273 38.5743 20.2623 38.782 21.627 38.782C23.6443 38.782 25.4243 38.3667 26.967 37.536C28.5097 36.7053 29.815 35.6967 30.883 34.51C31.951 33.264 32.7223 32.0773 33.197 30.95C33.731 29.8227 33.9683 28.992 33.909 28.458C33.909 28.0427 34.2057 27.835 34.799 27.835C35.3923 27.835 35.689 28.28 35.689 29.17V29.259C35.689 31.6917 34.9473 33.798 33.464 35.578C31.9807 37.358 30.1117 38.7227 27.857 39.672C25.6617 40.6213 23.4367 41.096 21.182 41.096C19.758 41.096 18.2747 40.8587 16.732 40.384C13.528 39.2567 11.1547 37.625 9.612 35.489C8.06933 33.2937 7.298 30.8907 7.298 28.28C7.298 25.8473 7.95067 23.3553 9.256 20.804C10.6207 18.1933 12.6083 15.731 15.219 13.417C17.8297 11.0437 21.0633 8.99666 24.92 7.276C28.836 5.55533 33.3453 4.339 38.448 3.627C41.1773 3.21166 43.877 2.915 46.547 2.737C49.217 2.559 51.798 2.47 54.29 2.47C57.7313 2.47 61.0837 2.648 64.347 3.00399C67.6697 3.30066 70.7847 3.77533 73.692 4.428C74.5227 3.716 75.3533 3.093 76.184 2.559C77.074 2.025 77.875 1.60966 78.587 1.313C79.0023 1.135 79.3583 1.01633 79.655 0.956995C79.9517 0.897662 80.189 0.867996 80.367 0.867996C80.723 0.867996 80.901 0.986663 80.901 1.224C80.901 1.52066 80.456 1.99533 79.566 2.648C78.9727 3.06333 78.409 3.538 77.875 4.072C77.341 4.54666 77.0147 4.90267 76.896 5.14C82.948 6.68266 87.843 8.81866 91.581 11.548C95.3783 14.218 97.277 17.3923 97.277 21.071C97.277 22.9697 96.654 25.0463 95.408 27.301C94.1027 29.4963 92.293 31.2763 89.979 32.641C87.665 33.9463 85.2027 34.9253 82.592 35.578C79.9813 36.1713 77.5487 36.5273 75.294 36.646C77.252 37.2393 79.388 38.1293 81.702 39.316C84.0753 40.4433 86.241 41.8377 88.199 43.499C90.2163 45.1603 91.5513 47.1183 92.204 49.373C92.6193 50.797 92.827 52.2507 92.827 53.734C92.827 56.8787 91.9073 59.7267 90.068 62.278C88.288 64.8293 85.885 67.0247 82.859 68.864C79.8923 70.644 76.629 72.0087 73.069 72.958C69.509 73.9667 65.9787 74.471 62.478 74.471C61.1727 74.471 59.8377 74.382 58.473 74.204C52.777 73.492 48.06 72.602 44.322 71.534C40.6433 70.466 37.4097 69.2793 34.621 67.974C28.8657 72.3053 22.606 74.471 15.842 74.471ZM61.232 71.89C64.9107 71.89 68.263 71.3263 71.289 70.199C74.315 69.0717 76.9257 67.5883 79.121 65.749C81.3757 63.9097 83.0963 61.8627 84.283 59.608C85.529 57.3533 86.152 55.1283 86.152 52.933C86.152 50.8563 85.529 48.839 84.283 46.881C83.037 44.923 81.079 43.2913 78.409 41.986C76.095 40.8587 73.692 39.939 71.2 39.227C68.7673 38.4557 66.661 37.803 64.881 37.269C63.101 36.6757 62.0627 36.0823 61.766 35.489C61.766 34.777 62.0627 34.3023 62.656 34.065C63.3087 33.7683 64.1393 33.62 65.148 33.62C66.3347 33.62 67.7587 33.709 69.42 33.887C71.0813 34.065 72.8317 34.154 74.671 34.154C76.5697 34.154 78.498 33.7387 80.456 32.908C82.4733 32.018 84.3127 30.861 85.974 29.437C87.6353 27.9537 88.9703 26.3517 89.979 24.631C91.047 22.851 91.581 21.0413 91.581 19.202C91.581 17.5407 91.0173 15.909 89.89 14.307C88.7627 12.705 86.8937 11.3107 84.283 10.124C81.6723 8.93733 78.854 7.988 75.828 7.276C72.8613 11.37 69.8947 15.9683 66.928 21.071C63.9613 26.1143 60.9947 31.2467 58.028 36.468C55.0613 41.63 52.065 46.525 49.039 51.153C46.013 55.781 42.987 59.7563 39.961 63.079C39.249 63.8503 38.6853 64.4437 38.27 64.859C37.8547 65.215 37.291 65.7193 36.579 66.372C39.3677 67.4993 42.542 68.5673 46.102 69.576C49.662 70.5847 53.7263 71.2967 58.295 71.712C58.7697 71.7713 59.2443 71.801 59.719 71.801C60.253 71.8603 60.7573 71.89 61.232 71.89ZM14.062 71.712C17.3847 71.89 20.4107 71.5043 23.14 70.555C25.9287 69.5463 28.5097 68.152 30.883 66.372C28.8063 65.3633 26.6703 64.325 24.475 63.257C22.339 62.1297 20.0547 61.121 17.622 60.231C15.9013 59.6377 14.329 59.341 12.905 59.341C10.7097 59.341 9.04833 59.9343 7.921 61.121C6.79367 62.2483 6.23 63.5537 6.23 65.037C6.23 66.5797 6.88267 68.063 8.188 69.487C9.49333 70.8517 11.4513 71.5933 14.062 71.712ZM117.38 71.267C116.727 71.3263 115.986 71.178 115.155 70.822C114.324 70.466 113.583 69.8133 112.93 68.864C112.337 67.9147 112.04 66.5797 112.04 64.859C112.04 63.435 112.307 61.7143 112.841 59.697C112.129 60.8243 111.209 62.2187 110.082 63.88C108.955 65.482 107.738 66.906 106.433 68.152C105.306 69.22 104.238 69.9913 103.229 70.466C102.22 70.9407 101.301 71.178 100.47 71.178C98.9272 71.178 97.6812 70.4957 96.7319 69.131C95.7825 67.707 95.3079 65.8677 95.3079 63.613C95.3079 61.2397 95.9012 58.54 97.0879 55.514C98.2745 52.488 100.203 49.3433 102.873 46.08C104.594 44.0033 106.67 42.342 109.103 41.096C111.595 39.7907 114.028 39.138 116.401 39.138C117.766 39.138 119.071 39.3753 120.317 39.85C121.563 40.2653 122.661 40.9773 123.61 41.986C124.025 42.4013 124.233 42.876 124.233 43.41C124.233 43.766 124.085 44.0627 123.788 44.3C123.491 44.5373 123.106 44.5967 122.631 44.478C121.978 42.4013 120.584 41.363 118.448 41.363C117.439 41.363 116.282 41.6893 114.977 42.342C112.96 43.41 110.853 45.1603 108.658 47.593C106.522 50.0257 104.653 52.5473 103.051 55.158C102.814 55.514 102.428 56.1963 101.894 57.205C101.419 58.2137 100.945 59.341 100.47 60.587C99.9952 61.833 99.6689 63.0493 99.4909 64.236C99.4315 64.592 99.4019 64.859 99.4019 65.037C99.4019 65.1557 99.4019 65.3633 99.4019 65.66C99.4019 67.618 100.144 68.597 101.627 68.597C103.407 68.597 105.424 67.2917 107.679 64.681C109.222 62.7823 110.616 60.7947 111.862 58.718C113.108 56.6413 114.384 54.4163 115.689 52.043C116.579 50.441 117.41 49.106 118.181 48.038C118.952 46.97 120.05 46.436 121.474 46.436C122.127 46.436 122.779 46.525 123.432 46.703C124.085 46.881 124.767 46.9107 125.479 46.792C125.004 47.2667 124.352 48.1567 123.521 49.462C122.75 50.7673 121.919 52.2507 121.029 53.912C120.139 55.5733 119.338 57.2643 118.626 58.985C117.914 60.7057 117.41 62.189 117.113 63.435C117.054 63.791 116.965 64.2953 116.846 64.948C116.787 65.6007 116.757 66.0753 116.757 66.372C116.757 68.0333 117.232 68.864 118.181 68.864C119.13 68.864 120.139 68.3003 121.207 67.173C122.334 66.0457 123.432 64.6513 124.5 62.99C125.568 61.3287 126.547 59.6673 127.437 58.006C128.327 56.2853 129.039 54.891 129.573 53.823C129.81 53.2297 130.166 52.933 130.641 52.933C130.938 52.933 131.086 53.1407 131.086 53.556C131.086 53.734 130.997 54.0603 130.819 54.535C130.107 56.0183 129.247 57.7093 128.238 59.608C127.229 61.4473 126.132 63.257 124.945 65.037C123.758 66.7577 122.512 68.2113 121.207 69.398C119.961 70.5253 118.685 71.1483 117.38 71.267ZM140.036 71.089C138.909 71.089 137.781 70.644 136.654 69.754C135.527 68.8047 134.963 67.2917 134.963 65.215C134.963 63.613 135.349 61.7737 136.12 59.697C136.832 57.6797 137.781 55.7217 138.968 53.823C140.214 51.9243 141.104 50.3817 141.638 49.195C141.816 48.7203 141.905 48.305 141.905 47.949C141.905 46.881 141.223 46.1097 139.858 45.635C138.553 45.1603 136.832 44.8933 134.696 44.834L133.628 47.771C132.975 49.6697 132.056 51.8947 130.869 54.446C129.742 56.9973 128.466 59.4597 127.042 61.833C125.677 64.2063 124.253 66.105 122.77 67.529C122.651 67.6477 122.503 67.707 122.325 67.707C122.088 67.707 121.939 67.5587 121.88 67.262C121.761 66.9653 121.88 66.6093 122.236 66.194C124.55 63.1087 126.627 59.697 128.466 55.959C130.305 52.1617 131.848 48.305 133.094 44.389C134.399 40.473 135.349 36.8537 135.942 33.531C136.12 32.5817 136.446 31.8993 136.921 31.484C137.396 31.0093 137.9 30.772 138.434 30.772C139.205 30.772 139.917 31.1577 140.57 31.929C141.223 32.641 141.549 33.6793 141.549 35.044C141.549 35.2813 141.519 35.5483 141.46 35.845C141.46 36.1417 141.43 36.4383 141.371 36.735C141.134 37.981 140.422 39.1677 139.235 40.295C138.108 41.363 137.188 42.164 136.476 42.698C137.069 42.7573 137.692 42.8167 138.345 42.876C138.998 42.876 139.71 42.876 140.481 42.876C143.27 42.876 146.029 42.698 148.758 42.342C148.877 42.698 148.936 42.965 148.936 43.143C148.936 43.9143 148.699 44.8933 148.224 46.08C147.809 47.2667 147.364 48.3347 146.889 49.284C146.652 49.818 146.177 50.797 145.465 52.221C144.753 53.5857 143.982 55.158 143.151 56.938C142.32 58.6587 141.608 60.3793 141.015 62.1C140.481 63.7613 140.214 65.1853 140.214 66.372C140.214 67.9147 140.807 68.686 141.994 68.686C142.884 68.686 143.863 68.1223 144.931 66.995C145.999 65.8083 147.037 64.3843 148.046 62.723C149.114 61.0023 150.063 59.341 150.894 57.739C151.784 56.0777 152.466 54.7723 152.941 53.823C153.178 53.2297 153.505 52.933 153.92 52.933C154.157 52.933 154.276 53.1407 154.276 53.556C154.276 53.7933 154.187 54.1493 154.009 54.624C153.356 55.9887 152.585 57.5313 151.695 59.252C150.805 60.9727 149.796 62.6637 148.669 64.325C147.601 65.9863 146.414 67.44 145.109 68.686C143.863 69.8727 142.498 70.644 141.015 71C140.837 71.0593 140.511 71.089 140.036 71.089ZM183.801 79.366C179.529 79.366 175.405 78.832 171.43 77.764C167.455 76.7553 163.895 75.2127 160.75 73.136C157.605 71.0593 155.084 68.4487 153.185 65.304C151.346 62.1593 150.426 58.451 150.426 54.179C150.426 51.0343 150.99 47.682 152.117 44.122C152.77 42.1047 153.689 40.384 154.876 38.96C156.122 37.536 157.398 36.4383 158.703 35.667C160.008 34.8957 161.047 34.51 161.818 34.51C162.827 34.51 163.242 34.9847 163.064 35.934C162.708 36.3493 162.085 36.8537 161.195 37.447C160.364 37.981 159.445 38.693 158.436 39.583C157.487 40.473 156.567 41.63 155.677 43.054C154.846 44.4187 154.253 46.169 153.897 48.305C153.778 49.0763 153.66 49.8477 153.541 50.619C153.482 51.3903 153.452 52.132 153.452 52.844C153.452 56.7007 154.283 60.1123 155.944 63.079C157.605 66.0457 159.771 68.508 162.441 70.466C165.17 72.424 168.137 73.8777 171.341 74.827C174.604 75.8357 177.808 76.3103 180.953 76.251C185.759 76.1323 190.031 75.45 193.769 74.204C197.507 73.0173 200.83 71.4153 203.737 69.398C206.644 67.3807 209.196 65.1557 211.391 62.723C213.23 60.7057 215.07 58.2433 216.909 55.336C218.748 52.4287 220.528 49.3137 222.249 45.991C224.029 42.609 225.69 39.2567 227.233 35.934C228.835 32.6113 230.318 29.4667 231.683 26.5C233.048 23.5333 234.234 21.0117 235.243 18.935C236.252 16.799 237.082 15.3157 237.735 14.485C233.048 13.061 228.538 11.9633 224.207 11.192C219.935 10.3613 215.366 9.82733 210.501 9.58999C206.051 9.35266 202.076 9.857 198.575 11.103C195.134 12.349 192.197 14.04 189.764 16.176C187.391 18.2527 185.551 20.537 184.246 23.029C183 25.521 182.377 27.924 182.377 30.238C182.377 32.2553 182.881 34.065 183.89 35.667C184.958 37.2097 186.56 38.337 188.696 39.049C190.12 39.4643 191.514 39.672 192.879 39.672C195.015 39.672 196.884 39.227 198.486 38.337C200.088 37.447 201.423 36.379 202.491 35.133C203.618 33.8277 204.449 32.6113 204.983 31.484C205.576 30.2973 205.873 29.437 205.873 28.903V28.814C206.17 28.458 206.466 28.28 206.763 28.28C207.356 28.28 207.653 28.6953 207.653 29.526C207.356 32.0773 206.437 34.3023 204.894 36.201C203.411 38.0997 201.601 39.5533 199.465 40.562C197.329 41.5707 195.074 42.075 192.701 42.075C191.04 42.075 189.438 41.808 187.895 41.274C184.632 40.0873 182.169 38.1887 180.508 35.578C178.847 32.908 178.016 30.0303 178.016 26.945C178.016 24.3343 178.58 21.7533 179.707 19.202C180.834 16.5913 182.555 14.218 184.869 12.082C187.183 9.88666 190.061 8.13633 193.502 6.831C196.943 5.52566 200.978 4.873 205.606 4.873C206.377 4.873 207 4.873 207.475 4.873C207.95 4.873 208.751 4.93233 209.878 5.05099C212.667 5.28833 215.485 5.763 218.333 6.475C221.181 7.12766 223.91 7.86933 226.521 8.7C229.132 9.53066 231.535 10.3317 233.73 11.103C235.925 11.8743 237.735 12.438 239.159 12.794C239.337 12.5567 239.841 12.1413 240.672 11.548C241.562 10.9547 242.452 10.3317 243.342 9.679C244.291 9.02633 245.033 8.46266 245.567 7.988C246.101 7.51333 246.131 7.276 245.656 7.276H245.567C245.745 7.21667 245.982 7.187 246.279 7.187C246.872 7.187 247.317 7.39467 247.614 7.81C247.911 8.166 248.059 8.55166 248.059 8.967C248.059 9.73833 247.703 10.124 246.991 10.124C246.872 10.124 246.635 10.0647 246.279 9.946C246.042 9.70866 245.597 9.82733 244.944 10.302C244.351 10.7767 243.728 11.3403 243.075 11.993C242.482 12.5863 242.007 13.0907 241.651 13.506C242.956 13.9213 244.588 14.4257 246.546 15.019C248.563 15.553 250.699 16.1167 252.954 16.71C255.268 17.244 257.523 17.689 259.718 18.045C261.913 18.401 263.871 18.579 265.592 18.579C267.253 18.579 268.559 18.3713 269.508 17.956C270.517 17.5407 271.021 16.8583 271.021 15.909C271.021 15.553 271.08 15.2563 271.199 15.019C271.377 14.7223 271.674 14.574 272.089 14.574C272.386 14.574 272.593 14.841 272.712 15.375C272.831 15.8497 272.89 16.2353 272.89 16.532C272.89 17.956 272.119 19.113 270.576 20.003C269.093 20.893 267.224 21.338 264.969 21.338C264.613 21.338 264.257 21.338 263.901 21.338C263.545 21.2787 263.159 21.2193 262.744 21.16C256.099 20.3293 250.907 19.2613 247.169 17.956C243.49 16.6507 241.176 15.7903 240.227 15.375C237.557 19.647 235.362 24.0377 233.641 28.547C231.92 33.0563 230.289 37.5657 228.746 42.075C227.263 46.5843 225.512 50.9453 223.495 55.158C221.537 59.3707 218.926 63.346 215.663 67.084C213.29 69.754 210.382 72.0087 206.941 73.848C203.559 75.6873 199.88 77.052 195.905 77.942C191.93 78.8913 187.895 79.366 183.801 79.366ZM241.104 71.356C238.908 71.356 236.921 70.644 235.141 69.22C233.42 67.796 232.56 65.6303 232.56 62.723C232.56 60.053 233.212 57.205 234.518 54.179C235.823 51.0937 237.484 48.394 239.502 46.08C241.222 44.0627 243.151 42.4013 245.287 41.096C247.423 39.7907 249.44 39.138 251.339 39.138C252.644 39.138 253.771 39.494 254.721 40.206C255.729 40.9773 256.234 42.075 256.234 43.499C256.234 44.9823 255.67 46.614 254.543 48.394C253.415 50.174 251.813 51.8353 249.737 53.378C248.847 54.0307 247.719 54.6537 246.355 55.247C244.99 55.8403 243.625 56.3447 242.261 56.76C240.896 57.116 239.769 57.294 238.879 57.294C238.582 58.006 238.285 58.9553 237.989 60.142C237.751 61.3287 237.633 62.545 237.633 63.791C237.633 65.2743 237.929 66.6093 238.523 67.796C239.116 68.9827 240.214 69.576 241.816 69.576C243.774 69.576 245.554 69.0123 247.156 67.885C248.758 66.7577 250.182 65.3633 251.428 63.702C252.674 61.9813 253.712 60.2607 254.543 58.54C255.433 56.8193 256.145 55.3657 256.679 54.179C257.035 53.3483 257.509 52.933 258.103 52.933C258.399 52.933 258.548 53.0813 258.548 53.378C258.548 53.6153 258.459 53.912 258.281 54.268C257.45 56.048 256.56 57.9467 255.611 59.964C254.661 61.922 253.534 63.791 252.229 65.571C250.923 67.2917 249.351 68.686 247.512 69.754C245.732 70.822 243.596 71.356 241.104 71.356ZM239.502 55.692C240.332 55.692 241.727 55.3953 243.685 54.802C245.643 54.1493 247.423 53.1407 249.025 51.776C250.567 50.4113 251.754 48.928 252.585 47.326C253.415 45.6647 253.831 44.2703 253.831 43.143C253.831 41.8377 253.356 41.185 252.407 41.185C251.695 41.185 250.716 41.6597 249.47 42.609C248.224 43.5583 246.681 45.1603 244.842 47.415C243.714 48.839 242.646 50.3817 241.638 52.043C240.629 53.7043 239.917 54.9207 239.502 55.692ZM267.452 71.089C266.325 71.089 265.197 70.644 264.07 69.754C262.943 68.8047 262.379 67.2917 262.379 65.215C262.379 63.613 262.765 61.7737 263.536 59.697C264.248 57.6797 265.197 55.7217 266.384 53.823C267.63 51.9243 268.52 50.3817 269.054 49.195C269.232 48.7203 269.321 48.305 269.321 47.949C269.321 46.881 268.639 46.1097 267.274 45.635C265.969 45.1603 264.248 44.8933 262.112 44.834L261.044 47.771C260.391 49.6697 259.472 51.8947 258.285 54.446C257.158 56.9973 255.882 59.4597 254.458 61.833C253.093 64.2063 251.669 66.105 250.186 67.529C250.067 67.6477 249.919 67.707 249.741 67.707C249.504 67.707 249.355 67.5587 249.296 67.262C249.177 66.9653 249.296 66.6093 249.652 66.194C251.966 63.1087 254.043 59.697 255.882 55.959C257.721 52.1617 259.264 48.305 260.51 44.389C261.815 40.473 262.765 36.8537 263.358 33.531C263.536 32.5817 263.862 31.8993 264.337 31.484C264.812 31.0093 265.316 30.772 265.85 30.772C266.621 30.772 267.333 31.1577 267.986 31.929C268.639 32.641 268.965 33.6793 268.965 35.044C268.965 35.2813 268.935 35.5483 268.876 35.845C268.876 36.1417 268.846 36.4383 268.787 36.735C268.55 37.981 267.838 39.1677 266.651 40.295C265.524 41.363 264.604 42.164 263.892 42.698C264.485 42.7573 265.108 42.8167 265.761 42.876C266.414 42.876 267.126 42.876 267.897 42.876C270.686 42.876 273.445 42.698 276.174 42.342C276.293 42.698 276.352 42.965 276.352 43.143C276.352 43.9143 276.115 44.8933 275.64 46.08C275.225 47.2667 274.78 48.3347 274.305 49.284C274.068 49.818 273.593 50.797 272.881 52.221C272.169 53.5857 271.398 55.158 270.567 56.938C269.736 58.6587 269.024 60.3793 268.431 62.1C267.897 63.7613 267.63 65.1853 267.63 66.372C267.63 67.9147 268.223 68.686 269.41 68.686C270.3 68.686 271.279 68.1223 272.347 66.995C273.415 65.8083 274.453 64.3843 275.462 62.723C276.53 61.0023 277.479 59.341 278.31 57.739C279.2 56.0777 279.882 54.7723 280.357 53.823C280.594 53.2297 280.921 52.933 281.336 52.933C281.573 52.933 281.692 53.1407 281.692 53.556C281.692 53.7933 281.603 54.1493 281.425 54.624C280.772 55.9887 280.001 57.5313 279.111 59.252C278.221 60.9727 277.212 62.6637 276.085 64.325C275.017 65.9863 273.83 67.44 272.525 68.686C271.279 69.8727 269.914 70.644 268.431 71C268.253 71.0593 267.927 71.089 267.452 71.089Z" fill="url(#paint0_linear_54_119)"/>
<defs>
<linearGradient id="paint0_linear_54_119" x1="173.5" y1="-5" x2="186.373" y2="107.555" gradientUnits="userSpaceOnUse">
<stop stop-color="#EBF3F8"/>
<stop offset="1" stop-color="#D2E7EC"/>
</linearGradient>
</defs>
</svg>
